<?xml version="1.0" standalone="no"?>
<!DOCTYPE svg PUBLIC "-//W3C//DTD SVG 20010904//EN"
 "http://www.w3.org/TR/2001/REC-SVG-20010904/DTD/svg10.dtd">
<svg version="1.0" xmlns="http://www.w3.org/2000/svg"
 width="290.000000pt" height="290.000000pt" viewBox="0 0 290.000000 290.000000"
 preserveAspectRatio="xMidYMid meet">
<metadata>
Created by potrace 1.11, written by Peter Selinger 2001-2013
</metadata>
<g transform="translate(0.000000,290.000000) scale(0.100000,-0.100000)"
fill="#000000" stroke="none">
<path d="M1418 2736 c3 -5 -5 -7 -16 -4 -12 4 -24 2 -27 -2 -3 -5 -13 -9 -23
-9 -38 0 -97 -14 -119 -28 -13 -9 -23 -13 -23 -10 0 3 -16 -1 -35 -9 -19 -8
-35 -11 -35 -7 0 4 -7 -2 -15 -13 -8 -10 -15 -15 -15 -11 0 5 -12 0 -27 -11
-16 -10 -34 -17 -42 -14 -8 3 -11 0 -7 -6 3 -6 -4 -14 -16 -18 -12 -3 -30 -15
-41 -25 -11 -10 -24 -16 -29 -13 -4 3 -8 0 -8 -6 0 -6 -4 -8 -10 -5 -5 3 -10
1 -10 -5 0 -6 -5 -8 -12 -4 -7 4 -8 3 -4 -5 4 -6 0 -14 -11 -18 -35 -13 -83
-55 -83 -73 0 -10 -3 -20 -7 -23 -5 -2 -2 -2 4 -1 15 4 36 -32 28 -46 -3 -6
-1 -10 4 -10 6 0 11 -12 11 -26 0 -14 4 -23 10 -19 6 3 10 -4 10 -17 0 -13 7
-33 15 -45 14 -20 17 -20 55 -7 23 8 46 11 52 8 7 -5 8 -2 3 6 -6 10 -4 12 8
7 10 -3 17 -3 17 1 0 4 12 8 28 9 15 0 39 4 54 7 15 3 30 1 33 -4 5 -8 11 -8
20 0 17 14 134 15 148 1 7 -7 14 -7 24 0 7 7 13 8 13 3 0 -5 25 -10 56 -11 38
-2 64 -8 77 -20 11 -10 17 -13 14 -6 -7 11 75 -16 89 -29 8 -9 44 12 67 40 10
12 25 22 33 22 8 0 13 4 12 9 -3 10 119 131 132 131 4 0 10 9 13 21 3 12 10
18 16 14 6 -3 11 -1 11 5 0 6 6 8 13 4 6 -4 9 -4 5 1 -11 11 12 36 25 28 6 -3
7 -1 3 5 -8 13 28 35 39 24 5 -4 5 -2 2 4 -6 10 10 23 28 24 3 0 15 9 27 20
26 24 54 26 74 6 15 -16 14 -33 -5 -81 -6 -16 -14 -36 -16 -43 -3 -8 -10 -10
-17 -6 -10 6 -10 5 -1 -7 10 -13 9 -20 -8 -37 -11 -12 -17 -22 -13 -22 4 0 0
-8 -9 -18 -10 -10 -14 -22 -10 -26 5 -4 0 -14 -11 -21 -10 -8 -15 -18 -11 -24
3 -6 -1 -11 -9 -11 -9 0 -15 -3 -14 -7 3 -11 -20 -73 -27 -73 -3 0 -3 6 1 13
4 7 3 9 -2 4 -5 -5 -10 -13 -10 -18 -1 -5 -2 -14 -3 -20 0 -5 -6 -7 -13 -3 -7
5 -8 3 -3 -6 4 -7 2 -15 -4 -20 -7 -4 -13 -13 -14 -21 -2 -8 -12 -28 -24 -45
-20 -28 -29 -79 -12 -69 9 6 40 -30 32 -38 -3 -4 -1 -7 5 -7 10 0 28 -38 24
-52 -1 -5 3 -8 9 -8 5 0 8 -4 5 -9 -4 -5 -2 -11 3 -13 13 -4 26 -77 36 -188 1
-19 3 -35 5 -35 1 0 3 -12 4 -27 1 -16 -1 -28 -4 -28 -8 0 -4 -73 5 -95 5 -11
16 -25 24 -32 9 -6 13 -15 9 -18 -4 -4 0 -14 8 -22 8 -8 11 -20 7 -26 -3 -7
-3 -9 2 -5 11 10 46 -32 38 -45 -3 -5 -1 -7 4 -4 6 4 23 -5 38 -19 27 -25 73
-49 88 -46 4 1 7 -3 7 -8 0 -5 3 -9 8 -8 4 1 18 -2 32 -6 38 -10 190 -13 190
-3 0 5 7 7 15 4 8 -4 17 -2 20 4 4 5 11 7 16 4 5 -4 9 -2 9 3 0 13 30 11 30
-2 0 -6 5 -3 11 7 6 9 14 15 20 12 5 -4 9 -1 9 5 0 7 7 9 16 6 8 -3 13 -2 10
2 -6 10 30 43 38 35 3 -4 6 -1 6 5 0 6 7 18 16 26 8 9 12 16 7 16 -5 0 -9 9
-10 21 -3 31 -21 48 -64 59 -22 6 -38 14 -35 18 3 4 -4 8 -15 9 -22 2 -71 48
-61 58 4 4 2 6 -3 5 -25 -5 -37 1 -31 16 3 8 2 12 -3 9 -5 -3 -12 -1 -15 4 -4
5 -2 13 4 16 7 4 8 11 1 18 -10 13 4 29 29 36 37 8 220 6 224 -4 2 -5 5 -4 5
3 1 6 9 12 19 12 21 0 48 29 46 50 0 8 4 23 9 34 6 11 5 16 0 13 -6 -4 -11 11
-12 33 -2 61 -4 70 -13 70 -4 0 -7 3 -6 8 1 4 -4 27 -11 51 -7 23 -10 50 -7
58 3 8 2 12 -3 9 -4 -3 -14 7 -21 22 -7 15 -16 34 -20 42 -4 9 -11 30 -15 48
-3 18 -10 32 -15 32 -7 0 -31 48 -33 67 0 4 -9 17 -19 28 -10 10 -16 25 -14
32 3 7 -1 10 -10 6 -10 -4 -14 2 -14 21 0 17 -5 26 -16 26 -10 0 -14 5 -10 16
3 8 2 13 -2 11 -4 -3 -13 1 -20 9 -7 8 -11 14 -8 14 3 0 -6 12 -19 26 -14 15
-22 30 -19 35 3 5 -2 6 -10 3 -9 -3 -16 -1 -16 6 0 12 -24 40 -35 40 -3 0 -19
14 -35 30 -17 17 -30 27 -30 23 0 -4 -5 0 -11 10 -5 9 -19 17 -30 17 -11 0
-17 5 -14 10 3 6 -3 10 -14 10 -11 0 -27 10 -37 23 -14 18 -15 19 -10 3 7 -19
6 -19 -12 -3 -10 9 -23 17 -29 17 -6 0 -32 10 -59 22 -27 12 -52 21 -56 20 -4
-1 -24 6 -45 15 -37 17 -123 25 -133 13 -12 -15 -81 -40 -92 -34 -7 4 -8 3 -4
-4 3 -6 -3 -16 -14 -22 -11 -6 -20 -8 -20 -4 0 4 -9 -1 -19 -10 -13 -12 -21
-14 -26 -6 -3 5 -10 8 -15 5 -10 -6 -1 35 11 51 5 6 6 14 2 17 -3 4 -1 7 7 7
10 0 10 3 0 15 -7 8 -19 15 -26 15 -8 0 -14 3 -14 8 0 4 -54 7 -119 7 -69 0
-117 -4 -113 -9z"/>
<path d="M1988 2516 c-10 -13 -14 -32 -11 -45 8 -31 27 -25 50 16 10 18 10 25
-3 38 -19 18 -16 19 -36 -9z"/>
<path d="M701 2453 c-7 -7 -16 -11 -22 -8 -5 4 -9 -1 -9 -9 0 -9 -5 -16 -11
-16 -5 0 -7 -4 -4 -10 3 -5 0 -10 -9 -10 -8 0 -20 -13 -28 -30 -7 -16 -17 -30
-21 -30 -5 0 -5 -5 -1 -12 5 -7 2 -9 -8 -6 -8 4 -15 1 -15 -7 0 -20 -34 -89
-52 -103 -9 -8 -10 -11 -3 -7 14 7 17 -11 2 -20 -6 -4 -8 -11 -5 -16 4 -5 2
-9 -3 -9 -6 0 -10 -6 -9 -12 1 -35 -4 -49 -15 -42 -7 5 -8 3 -3 -6 13 -21 10
-67 -6 -86 -11 -14 -11 -16 0 -10 10 7 12 -2 10 -42 -2 -27 -1 -48 2 -46 4 2
7 -9 7 -24 0 -42 8 -84 21 -116 6 -16 9 -36 7 -43 -3 -8 -1 -11 4 -8 6 3 10 3
11 -2 2 -26 9 -47 16 -52 28 -19 54 -171 30 -171 -8 0 -8 -3 2 -9 8 -5 11 -16
8 -25 -4 -9 -1 -16 5 -16 7 0 7 -4 1 -12 -8 -11 -10 -33 -3 -40 8 -11 6 -38
-3 -38 -8 0 -7 -3 2 -9 9 -6 10 -11 2 -15 -6 -4 -8 -12 -4 -19 10 -17 11 -107
0 -100 -5 3 -2 -6 7 -19 9 -14 13 -28 9 -33 -5 -4 -3 -5 3 -2 6 4 23 -4 37
-17 14 -13 28 -21 31 -18 3 3 6 1 6 -5 0 -5 12 -15 26 -21 14 -7 22 -17 19
-22 -3 -5 0 -7 9 -4 8 3 24 -4 35 -15 12 -12 24 -21 27 -21 15 0 73 -54 67
-63 -4 -6 0 -8 10 -4 10 3 17 3 17 -2 0 -4 11 -14 25 -21 13 -7 22 -17 19 -21
-2 -4 0 -10 6 -14 6 -4 7 -11 4 -17 -5 -7 -2 -8 5 -3 13 8 42 -18 54 -47 3
-10 11 -18 17 -18 6 0 8 -4 5 -10 -3 -5 1 -10 10 -10 9 0 13 -4 10 -10 -3 -5
-1 -10 5 -10 6 0 8 -5 5 -10 -3 -6 -1 -10 5 -10 6 0 9 -4 6 -9 -4 -5 -1 -11 5
-13 6 -2 12 -15 12 -30 1 -14 5 -24 9 -22 4 3 6 -4 6 -13 0 -10 0 -22 2 -28 6
-23 -2 -42 -30 -75 -16 -19 -34 -35 -40 -35 -5 0 -9 -2 -8 -5 3 -5 -38 -67
-59 -88 -7 -7 -13 -18 -13 -24 0 -6 -10 -8 -22 -5 -20 5 -21 4 -7 -6 14 -10
15 -16 4 -30 -6 -9 -15 -14 -18 -11 -3 3 -3 -4 0 -17 4 -15 2 -20 -5 -15 -6 4
-11 -1 -11 -11 -1 -39 -8 -83 -13 -88 -3 -4 -3 -18 1 -33 6 -19 14 -27 29 -26
12 0 22 -4 22 -10 0 -5 7 -1 15 10 8 10 15 15 15 10 0 -13 50 35 50 49 0 6 8
18 18 27 28 27 37 42 41 68 1 14 8 28 14 32 6 3 12 14 13 23 1 9 6 24 10 33
17 39 26 113 28 229 0 50 5 89 9 86 5 -3 4 3 -1 14 -6 10 -13 47 -15 81 -3 42
-11 70 -26 88 -12 15 -19 29 -17 31 7 8 56 11 56 4 0 -4 10 -8 23 -9 37 -4 51
-7 66 -16 10 -6 12 -5 7 2 -5 8 -2 10 8 6 9 -3 13 -10 10 -15 -3 -5 5 -5 18 0
27 10 51 4 42 -11 -4 -6 2 -6 14 1 12 6 23 7 26 3 2 -4 30 -8 60 -8 31 1 56
-3 56 -9 0 -7 3 -7 8 0 4 6 34 10 67 10 33 -1 65 1 70 4 6 3 13 6 18 7 4 1 8
2 10 4 1 1 16 4 32 6 17 3 42 11 57 18 20 10 29 11 38 2 8 -8 9 -6 4 9 -4 11
-4 17 1 13 4 -4 20 -1 35 7 15 8 31 11 35 7 5 -4 5 -2 1 5 -4 8 2 15 19 19 14
3 25 12 25 20 0 8 5 14 11 14 14 0 55 32 56 45 1 5 10 12 20 16 10 4 14 8 9 8
-5 1 -3 8 4 16 7 8 9 15 6 15 -4 0 -3 8 3 17 7 13 3 23 -15 40 -14 13 -31 23
-38 23 -7 0 -27 13 -43 29 -29 27 -31 33 -27 88 4 66 22 152 36 170 6 7 5 14
-2 18 -8 5 -8 11 1 21 6 8 8 14 3 14 -5 0 -2 5 6 10 10 6 11 10 3 10 -7 0 -13
7 -13 16 0 8 4 13 9 10 5 -3 11 1 14 9 4 9 1 12 -9 8 -9 -3 -14 1 -14 12 0 10
4 13 13 9 8 -5 8 -2 -2 9 -7 9 -10 17 -5 17 5 0 2 5 -6 10 -13 9 -13 10 0 10
13 0 13 2 1 9 -13 8 -13 12 0 27 9 11 9 15 2 10 -13 -7 -16 4 -17 66 0 15 -4
25 -8 22 -4 -3 -8 7 -8 21 0 14 -7 39 -15 54 -8 16 -11 31 -8 35 4 3 1 6 -6 6
-7 0 -21 10 -31 23 -13 17 -27 23 -49 21 -17 -1 -31 1 -31 5 0 4 -11 8 -23 9
-32 2 -78 27 -69 37 4 5 2 5 -5 2 -16 -10 -43 2 -43 18 0 8 -9 17 -21 20 -14
5 -19 13 -16 25 4 14 1 17 -12 12 -14 -5 -14 -4 -1 13 8 10 10 16 3 12 -7 -5
-17 2 -24 15 -7 13 -12 24 -11 26 6 8 0 22 -7 17 -5 -3 -12 -1 -16 5 -4 6 -11
8 -16 5 -5 -4 -9 -2 -9 3 0 8 -14 12 -52 13 -10 0 -18 4 -18 8 0 4 -16 5 -36
3 -20 -3 -34 -1 -31 4 7 13 -186 12 -195 0 -5 -8 -8 -7 -8 1 0 8 -9 9 -34 2
-18 -5 -49 -11 -67 -12 -19 -2 -39 -5 -44 -9 -6 -3 -18 -4 -27 -3 -11 2 -18
-3 -18 -11 0 -9 -4 -12 -10 -9 -5 3 -10 -1 -10 -9 0 -9 -5 -16 -10 -16 -7 0
-7 -6 0 -19 6 -12 6 -22 1 -25 -5 -3 -7 -15 -4 -27 7 -25 -11 -39 -39 -31 -15
4 -17 7 -6 13 7 5 8 9 2 9 -6 0 -10 10 -10 23 1 12 -1 29 -5 38 -5 9 -9 36
-10 60 -2 24 -11 59 -21 77 -10 19 -14 31 -8 27 6 -3 7 0 4 9 -3 9 -10 16 -16
16 -5 0 -6 5 -3 10 3 6 2 10 -3 10 -8 0 -17 21 -21 45 -1 11 -46 52 -56 52 -6
0 -17 -6 -24 -14z"/>
<path d="M1870 2420 c-11 -11 -24 -20 -29 -20 -7 0 -8 -65 -1 -80 1 -3 2 -9 1
-13 -1 -5 3 -6 9 -2 9 6 14 -7 11 -27 0 -5 15 -8 34 -8 28 0 35 4 35 20 0 11
5 20 10 20 6 0 10 8 10 18 0 10 3 22 7 26 10 10 13 36 4 36 -4 0 -13 11 -19
25 -14 30 -44 33 -72 5z"/>
<path d="M1754 2305 c-12 -8 -25 -11 -29 -7 -3 4 -5 2 -3 -5 2 -6 -14 -27 -36
-47 -21 -20 -35 -36 -30 -36 4 0 1 -6 -8 -12 -18 -15 -33 -53 -17 -43 6 4 13
-2 16 -14 3 -12 12 -21 19 -21 8 0 24 -10 36 -22 29 -29 77 -32 106 -5 12 11
22 26 22 34 0 7 4 13 9 13 8 0 20 28 25 55 1 6 -10 20 -24 32 -14 13 -21 23
-16 23 5 0 1 9 -8 19 -10 11 -15 25 -10 32 4 8 3 10 -4 5 -7 -4 -12 -2 -12 3
0 15 -12 14 -36 -4z"/>
<path d="M410 2060 c-8 -5 -11 -10 -6 -10 5 0 0 -8 -11 -17 -11 -10 -18 -24
-16 -30 3 -7 -1 -13 -8 -13 -7 0 -10 -3 -6 -6 3 -4 -7 -25 -22 -48 -16 -22
-28 -43 -28 -46 1 -4 -8 -33 -18 -62 -1 -5 -3 -13 -4 -19 0 -5 -5 -8 -10 -4
-6 3 -8 -4 -6 -15 2 -11 0 -20 -5 -20 -5 0 -7 -6 -4 -14 3 -8 0 -17 -5 -21 -6
-3 -9 -11 -5 -16 3 -5 0 -17 -8 -26 -9 -12 -9 -15 -1 -9 9 5 11 2 7 -8 -3 -9
-11 -16 -18 -16 -7 0 -6 -4 3 -9 9 -6 10 -11 2 -15 -6 -4 -11 -16 -11 -27 0
-11 -4 -18 -8 -15 -4 2 -8 -3 -9 -12 -1 -9 -4 -35 -8 -57 -3 -22 -6 -48 -6
-57 0 -10 -6 -18 -12 -18 -7 0 -6 -4 3 -10 11 -7 12 -10 2 -10 -9 0 -11 -7 -7
-19 3 -11 1 -23 -6 -26 -8 -6 -8 -9 0 -15 8 -5 9 -14 2 -33 -6 -15 -7 -27 -3
-27 12 0 11 -74 -2 -82 -7 -5 -3 -8 9 -8 15 0 17 -2 6 -9 -8 -5 -9 -11 -3 -15
6 -3 9 -17 7 -31 -1 -14 1 -25 5 -25 4 0 6 -10 5 -22 -1 -13 0 -27 4 -33 3 -5
7 -19 8 -29 2 -11 9 -26 16 -35 8 -10 8 -13 0 -8 -6 4 -3 -11 8 -33 11 -22 18
-43 17 -47 -1 -9 15 -51 37 -97 8 -16 12 -32 10 -37 -3 -4 -1 -10 4 -13 5 -3
7 -15 4 -26 -3 -11 -9 -17 -14 -14 -5 3 -6 -1 -3 -9 3 -8 -2 -22 -11 -31 -9
-9 -13 -16 -9 -16 3 0 1 -7 -6 -15 -7 -8 -9 -15 -4 -15 4 0 3 -5 -3 -11 -6 -6
-9 -18 -6 -25 3 -8 -1 -14 -8 -14 -7 0 -9 -3 -6 -6 3 -4 2 -14 -3 -24 -12 -22
-20 -62 -27 -125 -3 -27 -10 -53 -17 -57 -8 -6 -8 -8 0 -8 13 0 13 -68 1 -87
-5 -8 -4 -13 2 -13 6 0 11 -8 11 -17 0 -9 3 -13 6 -10 4 3 18 -6 33 -22 14
-15 31 -26 37 -24 6 2 17 -3 24 -12 7 -8 21 -15 31 -15 10 0 20 -4 23 -9 5 -8
23 -13 106 -27 19 -3 38 -11 42 -18 5 -8 8 -7 8 3 0 10 3 11 13 2 8 -6 17 -8
21 -4 4 4 30 8 59 9 29 0 72 6 96 12 25 6 49 8 55 5 5 -3 6 -1 2 5 -5 8 1 12
18 12 14 0 28 5 31 10 4 6 11 8 16 5 5 -4 9 -3 10 2 3 31 11 70 16 83 3 8 5
21 4 29 -1 8 2 10 10 5 8 -4 10 -3 5 5 -9 14 3 53 14 46 4 -3 7 3 6 12 -4 22
14 63 26 63 5 0 7 4 3 9 -3 6 1 13 8 18 8 4 22 23 31 41 9 18 23 35 31 38 8 3
17 15 20 25 6 16 9 18 21 8 9 -7 14 -8 13 -3 -3 19 2 31 21 52 12 12 16 22 9
22 -6 0 -9 8 -6 20 3 10 1 20 -4 22 -5 2 -10 13 -12 25 -2 12 -11 31 -22 43
-10 11 -15 20 -12 20 4 0 -8 15 -26 34 -17 19 -46 50 -64 69 -17 20 -34 33
-39 29 -4 -4 -5 3 -2 15 3 12 3 22 -1 21 -26 -3 -43 6 -53 27 -8 19 -14 22
-20 13 -5 -9 -8 -8 -8 6 0 11 -3 16 -7 13 -3 -4 -13 -1 -21 5 -8 7 -24 17 -35
23 -12 6 -27 21 -33 34 -8 15 -13 18 -16 9 -4 -9 -13 -5 -32 16 -15 15 -29 26
-32 23 -3 -3 -19 8 -37 24 -17 16 -28 32 -24 35 4 4 2 13 -4 20 -6 8 -6 14 0
18 6 4 6 18 0 38 -5 20 -5 36 1 43 5 7 7 14 4 18 -3 3 -8 24 -10 47 -4 33 -2
40 8 34 10 -6 10 -5 2 7 -6 8 -11 29 -10 47 0 17 -3 32 -8 32 -5 0 -4 6 3 13
8 10 7 17 -1 25 -9 9 -9 12 0 12 10 0 10 5 2 21 -9 15 -8 24 2 37 9 11 10 14
1 8 -8 -4 -13 -1 -13 9 0 16 -20 56 -33 66 -4 3 -9 15 -12 27 -2 11 -8 29 -12
39 -5 10 -9 25 -8 33 0 8 -3 18 -8 21 -4 3 -9 22 -10 42 -1 21 -6 37 -12 37
-5 0 -3 5 5 10 8 5 10 10 3 10 -6 0 -10 13 -9 30 1 17 -1 35 -5 42 -4 6 -3 22
2 35 6 16 5 22 -1 18 -17 -10 -11 7 8 22 9 8 11 12 5 8 -8 -4 -13 0 -13 9 0
18 -18 20 -40 6z"/>
<path d="M973 485 c0 -8 4 -12 9 -9 5 3 6 10 3 15 -9 13 -12 11 -12 -6z"/>
</g>
</svg>
